<svg xmlns="http://www.w3.org/2000/svg" width="15.692" height="15.662" viewBox="0 0 15.692 15.662">
  <g id="Group_35" data-name="Group 35" transform="translate(1.106 1)">
    <path id="Path_2939" data-name="Path 2939" d="M18.316,28.946a6.735,6.735,0,0,1-4.658-11.595.33.33,0,0,1,.468.465,6.073,6.073,0,1,0,8.4,0,.33.33,0,1,1,.468-.465,6.735,6.735,0,0,1-4.678,11.595Z" transform="translate(-11.586 -15.285)" fill="#fff" stroke="#fff" stroke-width="2"/>
    <path id="Path_2940" data-name="Path 2940" d="M31.33,18.77a.33.33,0,0,1-.33-.33V11.61a.33.33,0,1,1,.659,0V18.44A.33.33,0,0,1,31.33,18.77Z" transform="translate(-24.6 -11.28)" fill="#fff" stroke="#fff" stroke-width="2"/>
  </g>
</svg>
